PathFileType	4	(X/Y/Z)	Patient4_TMGait_0pt5_02_right_10.trc.trc
DataRate	CameraRate	NumFrames	NumMarkers	Units	OrigDataRate	OrigDataStartFrame	OrigNumFrames
75.675675675676	75.675675675676	7	33	mm	75.675675675676	53	       141
Frame#	Time	Sacral			L.Shoulder			Chest			R.Shoulder			Neck			R.ASIS			L.ASIS			R.Thigh.Superior			R.Thigh.Lateral			R.Thigh.Inferior			R.Patella			L.Thigh.Superior			L.Thigh.Lateral			L.Thigh.Inferior			L.Patella			L.Shank.Superior			L.Shank.Lateral			L.Shank.Inferior			R.Shank.Superior			R.Shank.Lateral			R.Shank.Inferior			R.Heel			R.Midfoot.Superior			R.Midfoot.Lateral			R.Toe			L.Heel			L.Midfoot.Lateral			L.Midfoot.Superior			L.Toe			L.Elbow			L.Wrist			R.Elbow			R.Wrist			
		X1	Y1	Z1	X2	Y2	Z2	X3	Y3	Z3	X4	Y4	Z4	X5	Y5	Z5	X6	Y6	Z6	X7	Y7	Z7	X8	Y8	Z8	X9	Y9	Z9	X10	Y10	Z10	X11	Y11	Z11	X12	Y12	Z12	X13	Y13	Z13	X14	Y14	Z14	X15	Y15	Z15	X16	Y16	Z16	X17	Y17	Z17	X18	Y18	Z18	X19	Y19	Z19	X20	Y20	Z20	X21	Y21	Z21	X22	Y22	Z22	X23	Y23	Z23	X24	Y24	Z24	X25	Y25	Z25	X26	Y26	Z26	X27	Y27	Z27	X28	Y28	Z28	X29	Y29	Z29	X30	Y30	Z30	X31	Y31	Z31	X32	Y32	Z32	X33	Y33	Z33	

53	13.777142857143	612.219650255302	1014.858414209429	531.386429244972	785.292844984843	1439.890734383776	345.407714276817	898.334116739312	1364.953449045455	496.819350253969	832.040131174921	1439.521739388304	678.325090183820	798.510634622851	1498.794265904195	496.671820329832	843.472752186347	941.831679123262	634.210524474242	814.252121987180	965.867778719054	361.744636970002	871.635753664493	737.905965358068	599.035819014577	785.617784969717	633.072213574495	657.856520984328	854.900986791111	577.775889259204	573.048926884656	849.578445211907	489.641908470076	575.188913197408	898.668256483899	785.553917948787	390.666647098014	853.604706364956	659.336501164236	313.550220037607	956.067675281353	597.696099840293	374.464043196895	974.499241792728	514.518956316122	368.253087666891	925.942868424996	440.725748488512	358.811607885593	804.701657043862	361.276376206543	306.184692159161	828.914615001170	233.663145232879	360.527188153349	818.536155019874	403.117638770809	580.707862798864	745.775266474557	301.284849601937	642.556038783877	778.678523196676	206.595127983057	574.538983986991	634.454005557445	45.831632164614	545.100422196959	808.132431544312	96.902434598328	575.917469678757	719.864708011092	37.271223871202	616.794251807632	927.881895783035	39.714667286078	600.333196650345	665.694156415242	114.118445157997	394.070316489518	733.311514681188	95.603751833545	311.294204521604	831.044838498312	131.009525992384	335.285815148713	936.989798945924	50.468758039626	299.152859438840	706.141731602858	1092.753007357300	231.894601856268	715.440995948693	834.024673472789	214.482528323611	882.363722855150	1108.988144638370	817.378842738750	1116.011556130885	1019.773996578916	758.454481884134	
54	13.790357142857	610.818232939331	1015.404059181834	532.609132105050	784.173014112143	1439.965073390694	346.186340287456	898.170631392192	1364.435122047495	496.512722658210	833.793296713634	1439.279861698888	678.604771966089	798.742866107635	1498.595696262598	497.366899383348	842.347693432413	941.376826769706	634.000653814626	812.012452007075	966.100316092375	361.620079948735	868.572060354954	737.120690733624	598.414952121907	782.349136293416	632.740461853712	657.940834861669	850.655567442500	577.056620102684	572.688652102218	844.791280306884	489.023566397578	574.980072713522	896.593132742076	786.516497430657	390.821857097347	852.117880662498	660.167758345425	313.394121290886	954.105032930477	598.854436879895	375.189009890154	974.242934931085	517.763079176009	368.915914188453	929.912306626480	443.236247201524	358.728604542708	814.922603783282	356.161078912344	304.780899480427	847.390463119635	230.093783587516	359.195708327338	813.390255671814	402.613199187884	580.581633280821	740.284416430616	301.083786164477	642.513148118249	772.606809492722	206.279842358822	574.437940102633	627.773897244991	45.811149252373	545.121907086641	801.422117600049	96.858231373636	575.891325017722	713.187514036368	37.241522572361	616.818545143326	921.188132817974	39.687074345648	600.368867290716	692.694221912135	99.355754550881	391.506363258660	762.013393754588	85.851095330377	309.152327124701	856.842703348226	127.870777988322	333.818833882573	968.374177713709	55.083635949193	298.353044830176	697.298602365637	1095.128498838641	232.203965609078	700.309783505728	836.278808296280	215.158342220290	891.852822895447	1110.704195963253	817.084123331822	1129.001141971060	1037.041984758495	753.442312422365	
55	13.803571428571	609.419877370647	1015.798220536904	533.661029714827	783.137711167891	1439.951550890424	346.874635857051	898.002941070833	1363.760645978221	496.138343239674	835.428693054531	1438.803703417604	678.785520770761	798.983749643556	1498.252373172716	497.996989301782	841.198930595771	940.819804799573	633.656302074304	809.816208562280	966.108539626019	361.339729809281	865.629680663207	736.277980066428	597.820106097295	779.195542931535	632.309648986704	657.961939398160	846.609255642153	576.274361039395	572.326529795217	840.192156779454	488.322011757371	574.739589136406	894.114330534617	786.893522007813	390.905016404725	850.113506915224	660.585410448673	313.033388596685	951.415505671197	599.392071700088	375.903109779567	973.213113192507	520.569584931313	369.589256181453	933.197645810266	445.638462893683	358.663272931534	825.166232308859	351.202633399872	303.232578856520	865.721072180945	227.289091186942	357.998814979679	808.384347256729	402.016073339160	580.406540855634	734.901202908772	300.814674628969	642.424907741957	766.576990880161	205.887296175808	574.297580253070	621.085529053756	45.756391415981	545.137335360617	794.684123047856	96.796688765496	575.832353585956	706.503553434657	37.199901825607	616.838758124764	914.489408274417	39.663672724479	600.393705968102	720.237833183814	85.943267874214	388.874083005783	791.228810504078	77.340268585254	307.213497733955	882.648576367453	125.810201106963	332.719961337257	999.342957700984	60.958078619218	298.512407495398	688.724142177488	1097.530111186713	232.585121599515	686.111071304238	838.653302451184	216.109239829305	901.086264661387	1112.222747750957	816.305453001529	1140.589538616638	1054.294247840423	747.936001654169	
56	13.816785714286	608.040385323073	1016.035869046182	534.540997134826	782.195931397342	1439.848921275558	347.450933018653	897.820890438331	1362.953625014942	495.702683508502	836.899911840793	1438.124329913215	678.857697639567	799.220955541130	1497.778953086848	498.536818769939	840.054813450509	940.176853066361	633.197118359452	807.673455959562	965.898482404051	360.923498899996	862.844077681089	735.386190442553	597.257022599856	776.177688297203	631.787920444070	657.915631906689	842.778736691008	575.431431584028	571.960103997528	835.789270594266	487.540050268797	574.457958399344	891.282502906462	786.723488138533	390.918061918620	847.709925367073	660.645398272105	312.446877839266	948.168568415228	599.391063887902	376.542645617756	971.550189568643	522.955329665694	370.217347224615	935.849142532136	447.950545583726	358.587623763005	835.303089320554	346.592887902956	301.600604592535	883.599844543403	225.398234215509	356.986104208467	803.523802877119	401.330503563451	580.174027008119	729.634991314614	300.485936823373	642.291172573793	760.593709040073	205.426939621423	574.117572737931	614.391100095363	45.670777230561	545.149528113476	787.923171112825	96.719489302061	575.741941416756	699.814874854837	37.150597120496	616.858770180257	907.788258098638	39.646762344362	600.408813615187	747.790425026289	74.273937385426	386.332728508298	820.398573754814	70.328039141265	305.604754111348	907.999438040779	124.948437329272	332.040089601089	1029.333196871910	68.024513535174	299.643687279194	680.489833159977	1099.904366627359	233.073517400403	672.816507350042	841.064532982204	217.299373184580	910.042679939292	1113.544342261720	815.020697813521	1150.762945282992	1071.362547066543	741.992359081803	
57	13.830000000000	606.696498174800	1016.120527240896	535.246492626825	781.348304139063	1439.661738506214	347.894860203039	897.614682321394	1362.046262816971	495.208956758830	838.171655194284	1437.285622925683	678.811879797586	799.439614023055	1497.197786323287	498.962029151985	838.944324395622	939.468102124313	632.639702464390	805.598102270519	965.491412193475	360.390890519288	860.233185961796	734.454734610431	596.713577961729	773.302788386657	631.189638018521	657.794724374936	839.155625820510	574.534234602836	571.577725424884	831.567205035601	486.684725983589	574.121892131485	888.181384898550	786.077667289198	390.855122572882	845.040652875069	660.413227557593	311.636601044431	944.560527643383	598.952811497849	377.044991793788	969.409733463396	524.943289208033	370.749764158952	937.928453945505	450.172612474190	358.470982896529	845.151568165400	342.472756624732	299.967653869939	900.707405097599	224.470797071038	356.184155902035	798.796658908019	400.567227264595	579.876315785555	724.481050289851	300.110124989183	642.111909302300	754.654600792090	204.912426639188	573.898578480331	607.692518003183	45.559739673628	545.160399392356	781.145331332718	96.629268546870	575.624146678119	693.123076680154	37.097423336928	616.881330025606	901.086723931456	39.638005032782	600.415728637648	774.764503318664	64.587084022272	384.051473136012	848.894047146381	64.924971283854	304.426596804541	932.410500984516	125.275834606886	331.776505073981	1057.789972731544	76.070165244946	301.629893865362	672.663302855693	1102.201498082881	233.689568153811	660.404383480741	843.442650009689	218.690495742088	918.681187035173	1114.684885843547	813.213891390354	1159.524128573024	1088.084853403315	735.673676471735	
58	13.843214285714	605.406859260492	1016.062700287278	535.772524084359	780.585941777497	1439.399275112866	348.188416857889	897.374892920250	1361.076734599839	494.656505594446	839.220359047692	1436.339233666895	678.639241623530	799.621783376556	1496.536040032295	499.250470886152	837.895754914441	938.716716075465	631.996684258796	803.610744208063	964.920457524229	359.759662711188	857.798332279302	733.493872538121	596.163962160203	770.564849825329	630.534700248733	657.591154520896	835.710287082324	573.593132424051	571.162867590030	827.490192177420	485.766863204184	573.717614012077	884.929156468887	785.054876383426	390.703771034889	842.242387338018	659.952903662200	310.633646392775	940.799566679374	598.185957721964	377.356739512534	966.955498573150	526.556523097725	371.145626641169	939.502322892911	452.281381153615	358.285192155472	854.485339229296	338.921949903741	298.433261802371	916.721780117794	224.452509346920	355.597008427799	794.176788853968	399.743064112845	579.509137553230	719.421949542980	299.703383549396	641.888193306480	748.751581262531	204.360794838693	573.643037986050	600.991424475185	45.430743417323	545.171034426047	774.358006256228	96.529602575628	575.486048041885	686.429348624824	37.043266409336	616.907199534592	894.386524858043	39.637940321473	600.416209493718	800.544032036861	56.960324925344	382.197923685199	876.040139381600	61.094981488405	303.744598731297	955.389715905266	126.653689392557	331.875572192470	1084.179194397441	84.745784660840	304.230416191317	665.305608126205	1104.376120913668	234.437133299762	648.866488589705	845.728713411781	220.243653210249	926.943634567147	1115.670231490410	810.879716643665	1166.892711296135	1104.307102893942	729.046109568443	
59	13.856428571429	604.193322142274	1015.877311063261	536.111462701800	779.890873199591	1439.074056005640	348.316764546563	897.092637044611	1360.086071882303	494.040835552630	840.033351435163	1435.338801130269	678.332034482578	799.746316852157	1495.822501749111	499.383312160673	836.935885541227	937.947900413311	631.276720674539	801.740567915163	964.225476708662	359.044594912303	855.526865316479	732.514585787634	595.575269804315	767.945935848675	629.847606290595	657.298785826267	832.397928033450	572.621795738252	570.699733858341	823.508110569201	484.800908899366	573.235339734994	881.674402337798	783.772240956916	390.446009188819	839.441192983705	659.315985713974	309.498511926843	937.088829581833	597.194398586062	377.439301497974	964.352083420754	527.814278834234	371.375000005980	940.637033995334	454.228108515422	358.010823752503	863.051322085554	335.954450338346	297.104167689821	931.330673975995	225.191486738938	355.212867222799	789.628290705539	398.879934838847	579.074255681371	714.430236279218	299.284876722654	641.623551996164	742.872814273394	203.791790055185	573.356152476825	594.289438159643	45.293278797941	545.181927413891	767.569731540183	96.425047601020	575.337639676007	679.734862517697	36.990231999632	616.935319060571	887.689305739898	39.645621931771	600.412054632613	824.511881125555	51.316245047361	380.924210539678	901.149545125789	58.668260086697	303.587384762114	976.457106308810	128.828497739606	332.248161942049	1108.005954984356	93.589817096077	307.117884806147	658.468054712660	1106.387898056310	235.303313634471	638.211322081358	847.872172075187	221.919987553867	934.759931315268	1116.530193702653	808.027438260674	1172.905675085129	1119.884634434702	722.177669325764	
